<?xml version="1.0" encoding="UTF-8"?>
<!DOCTYPE svg PUBLIC "-//W3C//DTD SVG 1.1//EN" "http://www.w3.org/Graphics/SVG/1.1/DTD/svg11.dtd">
<svg xmlns="http://www.w3.org/2000/svg" version="1.1" width="47px" height="47px" style="shape-rendering:geometricPrecision; text-rendering:geometricPrecision; image-rendering:optimizeQuality; fill-rule:evenodd; clip-rule:evenodd" xmlns:xlink="http://www.w3.org/1999/xlink">
<g><path style="opacity:0.743" fill="#fa6420" d="M 8.5,-0.5 C 17.8333,-0.5 27.1667,-0.5 36.5,-0.5C 38.1675,1.47865 38.8342,3.81198 38.5,6.5C 41.4206,6.28262 44.0872,6.94929 46.5,8.5C 46.5,14.5 46.5,20.5 46.5,26.5C 43.6575,25.8277 41.1575,24.4944 39,22.5C 38.6667,29.5 38.3333,36.5 38,43.5C 37.4867,44.5266 36.9867,45.5266 36.5,46.5C 27.5,46.5 18.5,46.5 9.5,46.5C 8.04303,43.7452 7.04303,40.7452 6.5,37.5C 4.27463,39.11 1.9413,40.4434 -0.5,41.5C -0.5,35.5 -0.5,29.5 -0.5,23.5C 1.82007,21.7739 4.48674,21.1072 7.5,21.5C 7.20267,14.0796 7.53601,6.74629 8.5,-0.5 Z M 10.5,1.5 C 18.8599,1.16879 27.1932,1.50212 35.5,2.5C 26.8525,3.66519 18.1858,3.83186 9.5,3C 10.056,2.61742 10.3893,2.11742 10.5,1.5 Z M 9.5,6.5 C 14.3633,6.18054 19.03,6.51388 23.5,7.5C 22.8826,7.61071 22.3826,7.94404 22,8.5C 18.4998,20.8336 22.9998,25.5002 35.5,22.5C 35.5,27.8333 35.5,33.1667 35.5,38.5C 26.8269,38.6664 18.1603,38.4998 9.5,38C 13.8874,37.774 18.2207,37.274 22.5,36.5C 27.0295,23.6996 22.6962,18.6996 9.5,21.5C 9.5,16.5 9.5,11.5 9.5,6.5 Z M 24.5,9.5 C 30.8421,9.33379 37.1754,9.50046 43.5,10C 44.7977,14.1179 44.7977,18.2846 43.5,22.5C 42.6919,22.1924 42.0253,21.6924 41.5,21C 36.1667,20.6667 30.8333,20.3333 25.5,20C 23.2383,16.7309 22.905,13.2309 24.5,9.5 Z M 2.5,24.5 C 5.0593,24.1984 7.39263,24.5318 9.5,25.5C 6.10631,27.4595 5.10631,30.2929 6.5,34C 7.79323,34.49 9.12656,34.6567 10.5,34.5C 10.6816,32.4086 10.3482,30.4086 9.5,28.5C 10.8333,27.1667 12.1667,27.1667 13.5,28.5C 12.6518,30.4086 12.3184,32.4086 12.5,34.5C 17.996,33.9374 18.996,31.2707 15.5,26.5C 15.0431,25.7025 14.3764,25.3691 13.5,25.5C 15.2646,24.5386 17.2646,24.2053 19.5,24.5C 20.7773,25.6936 21.4439,27.3603 21.5,29.5C 21.4604,31.4289 21.1271,33.2622 20.5,35C 15.1667,35.3333 9.83333,35.6667 4.5,36C 3.58377,36.3742 2.75044,36.8742 2,37.5C 1.18636,32.9796 1.35303,28.6463 2.5,24.5 Z M 9.5,40.5 C 18.1667,40.5 26.8333,40.5 35.5,40.5C 35.67,41.8221 35.3366,42.9887 34.5,44C 26.8333,44.6667 19.1667,44.6667 11.5,44C 10.0267,43.2904 9.36007,42.1238 9.5,40.5 Z"/></g>
<g><path style="opacity:0.119" fill="#ff6b20" d="M 9.5,6.5 C 17.9901,5.34305 26.6567,5.17639 35.5,6C 31.4155,6.23323 27.4155,6.73323 23.5,7.5C 19.03,6.51388 14.3633,6.18054 9.5,6.5 Z"/></g>
<g><path style="opacity:0.681" fill="#f9641f" d="M 27.5,11.5 C 31.2668,13.326 31.4335,15.326 28,17.5C 24.9113,15.7956 24.7446,13.7956 27.5,11.5 Z"/></g>
<g><path style="opacity:0.681" fill="#f9641f" d="M 33.5,11.5 C 37.2668,13.326 37.4335,15.326 34,17.5C 30.9113,15.7956 30.7446,13.7956 33.5,11.5 Z"/></g>
<g><path style="opacity:0.681" fill="#f9641f" d="M 39.5,11.5 C 43.2668,13.326 43.4335,15.326 40,17.5C 36.9113,15.7956 36.7446,13.7956 39.5,11.5 Z"/></g>
<g><path style="opacity:0.655" fill="#f9631f" d="M 12.5,13.5 C 14.337,13.6395 14.6704,14.3061 13.5,15.5C 12.7025,15.0431 12.3691,14.3764 12.5,13.5 Z"/></g>
<g><path style="opacity:0.655" fill="#f9631f" d="M 15.5,13.5 C 17.337,13.6395 17.6704,14.3061 16.5,15.5C 15.7025,15.0431 15.3691,14.3764 15.5,13.5 Z"/></g>
<g><path style="opacity:0.655" fill="#f9631f" d="M 18.5,13.5 C 20.337,13.6395 20.6704,14.3061 19.5,15.5C 18.7025,15.0431 18.3691,14.3764 18.5,13.5 Z"/></g>
<g><path style="opacity:0.122" fill="#fe6a20" d="M 2.5,24.5 C 8.16667,23.1667 13.8333,23.1667 19.5,24.5C 17.2646,24.2053 15.2646,24.5386 13.5,25.5C 12.1667,24.1667 10.8333,24.1667 9.5,25.5C 7.39263,24.5318 5.0593,24.1984 2.5,24.5 Z"/></g>
<g><path style="opacity:0.746" fill="#fa6420" d="M 13.5,25.5 C 14.3764,25.3691 15.0431,25.7025 15.5,26.5C 18.996,31.2707 17.996,33.9374 12.5,34.5C 12.3184,32.4086 12.6518,30.4086 13.5,28.5C 12.1667,27.1667 10.8333,27.1667 9.5,28.5C 10.3482,30.4086 10.6816,32.4086 10.5,34.5C 9.12656,34.6567 7.79323,34.49 6.5,34C 5.10631,30.2929 6.10631,27.4595 9.5,25.5C 10.8333,24.1667 12.1667,24.1667 13.5,25.5 Z"/></g>
<g><path style="opacity:0.655" fill="#f9631f" d="M 24.5,28.5 C 26.337,28.6395 26.6704,29.3061 25.5,30.5C 24.7025,30.0431 24.3691,29.3764 24.5,28.5 Z"/></g>
<g><path style="opacity:0.655" fill="#f9631f" d="M 27.5,28.5 C 29.337,28.6395 29.6704,29.3061 28.5,30.5C 27.7025,30.0431 27.3691,29.3764 27.5,28.5 Z"/></g>
<g><path style="opacity:0.655" fill="#f9631f" d="M 30.5,28.5 C 32.337,28.6395 32.6704,29.3061 31.5,30.5C 30.7025,30.0431 30.3691,29.3764 30.5,28.5 Z"/></g>
<g><path style="opacity:0.682" fill="#fa6320" d="M 19.5,41.5 C 21.924,41.1924 24.2573,41.5258 26.5,42.5C 25.3333,42.8333 24.1667,43.1667 23,43.5C 21.3189,43.3917 20.1522,42.7251 19.5,41.5 Z"/></g>
</svg>
