<svg width="97" height="97" viewBox="0 0 97 97" fill="none" xmlns="http://www.w3.org/2000/svg">
<rect width="97" height="97" rx="20" fill="#FFF3F0"/>
<g clip-path="url(#clip0_1_233)">
<path d="M61.425 70.8438H35.6438C34.2094 70.8435 32.7941 70.5156 31.5058 69.8852C30.2175 69.2548 29.0901 68.3384 28.2098 67.2061C27.3294 66.0737 26.7193 64.7553 26.426 63.3513C26.1327 61.9473 26.1638 60.4948 26.5172 59.1047L31.7422 37.775C31.8363 37.3937 32.0582 37.0561 32.3709 36.8184C32.6836 36.5807 33.0683 36.4573 33.4609 36.4688H62.25C62.6291 36.4514 63.0033 36.56 63.3142 36.7777C63.6252 36.9953 63.8553 37.3097 63.9688 37.6719L70.4656 58.5719C70.9098 59.9914 71.0121 61.4959 70.7642 62.9625C70.5163 64.4291 69.9252 65.8163 69.0391 67.011C68.1675 68.2107 67.0216 69.1845 65.6971 69.8513C64.3726 70.518 62.9078 70.8583 61.425 70.8438ZM34.75 39.9063L29.7828 59.9297C29.5616 60.8132 29.5439 61.7353 29.731 62.6266C29.9181 63.5178 30.3051 64.355 30.8628 65.075C31.4205 65.7949 32.1345 66.3788 32.9507 66.7826C33.767 67.1865 34.6643 67.3997 35.575 67.4063H61.3563C62.2916 67.4078 63.214 67.1873 64.0476 66.7631C64.8812 66.3388 65.6023 65.7228 66.1516 64.9657C66.7167 64.2042 67.0937 63.3199 67.252 62.385C67.4103 61.4501 67.3454 60.491 67.0625 59.586L61.0125 39.9063H34.75Z" fill="#FA6420"/>
<path d="M55.375 50.2188C54.9192 50.2188 54.482 50.0377 54.1597 49.7153C53.8373 49.393 53.6562 48.9558 53.6562 48.5V34.75C53.6562 33.3825 53.113 32.071 52.146 31.104C51.179 30.137 49.8675 29.5938 48.5 29.5938C47.1325 29.5938 45.821 30.137 44.854 31.104C43.887 32.071 43.3438 33.3825 43.3438 34.75V48.5C43.3438 48.9558 43.1627 49.393 42.8403 49.7153C42.518 50.0377 42.0808 50.2188 41.625 50.2188C41.1692 50.2188 40.732 50.0377 40.4097 49.7153C40.0873 49.393 39.9062 48.9558 39.9062 48.5V34.75C39.9062 32.4708 40.8117 30.2849 42.4233 28.6733C44.0349 27.0617 46.2208 26.1562 48.5 26.1562C50.7792 26.1562 52.9651 27.0617 54.5767 28.6733C56.1883 30.2849 57.0938 32.4708 57.0938 34.75V48.5C57.0938 48.9558 56.9127 49.393 56.5903 49.7153C56.268 50.0377 55.8308 50.2188 55.375 50.2188Z" fill="#FA6420"/>
</g>
<defs>
<clipPath id="clip0_1_233">
<rect width="55" height="55" fill="white" transform="translate(21 21)"/>
</clipPath>
</defs>
</svg>
